# xmcd
#
# Track frame offsets: 
#        150
#        25071
#        46308
#        62614
#        84734
#        104794
#        128763
#        153670
#        180174
#        199673
#
# Disc length: 2978 seconds
#
# Revision: 0
# Processed by: cddbd v1.5.2PL0 Copyright (c) Steve Scherf et al.
# Submitted via: ExactAudioCopy v1.0b3
#
DISCID=7f0ba00a
DTITLE=Various Artist - Xuan Kinh Chuc Phat Tai #3
DYEAR=2001
DGENRE=
TTITLE0=hop ca - Ly ruou mung
TTITLE1=Manh Dinh - Don Xuan nay nho Xuan xua
TTITLE2=Yen Khoa - Tam su nang Xuan
TTITLE3=Duy Khanh - Thu Xuan tren rung cao
TTITLE4=Che Linh - Xuan nay con khong ve
TTITLE5=Phi Nhung - Neu Xuan nay vang anh
TTITLE6=Tuan Anh - Xuan da ve
TTITLE7=Yen Khoa - Dem giao thua nghe mot khuc dan ca
TTITLE8=Thanh Tuyen - Phien gac dem Xuan
TTITLE9=Tuan Duc - Mua Xuan hoa tim
EXTD=
EXTT0=
EXTT1=
EXTT2=
EXTT3=
EXTT4=
EXTT5=
EXTT6=
EXTT7=
EXTT8=
EXTT9=
PLAYORDER=
